<svg xmlns="http://www.w3.org/2000/svg" width="14.731" height="8.594" viewBox="0 0 14.731 8.594">
  <g id="arrow-right" transform="translate(-4.5 -10.123)">
    <path id="Path_1" data-name="Path 1" d="M22.678,10.3a.614.614,0,0,1,.869,0l3.682,3.682a.614.614,0,0,1,0,.869l-3.682,3.682a.615.615,0,0,1-.869-.869l3.249-3.248-3.249-3.248a.614.614,0,0,1,0-.869Z" transform="translate(-8.179)" fill-rule="evenodd"/>
    <path id="Path_2" data-name="Path 2" d="M4.5,17.489a.614.614,0,0,1,.614-.614H18A.614.614,0,0,1,18,18.1H5.114A.614.614,0,0,1,4.5,17.489Z" transform="translate(0 -3.068)" fill-rule="evenodd"/>
  </g>
</svg>
