<svg xmlns="http://www.w3.org/2000/svg" width="29.252" height="29.252" viewBox="0 0 29.252 29.252">
  <g id="box-arrow-in-up-right" transform="translate(-3.373 -3.375)">
    <path id="Path_5" data-name="Path 5" d="M32.625,6.75A3.375,3.375,0,0,0,29.25,3.375H6.75A3.375,3.375,0,0,0,3.375,6.75V18a1.125,1.125,0,0,0,2.25,0V6.75A1.125,1.125,0,0,1,6.75,5.625h22.5A1.125,1.125,0,0,1,30.375,6.75v22.5a1.125,1.125,0,0,1-1.125,1.125h-9a1.125,1.125,0,0,0,0,2.25h9a3.375,3.375,0,0,0,3.375-3.375Z" fill-rule="evenodd"/>
    <path id="Path_6" data-name="Path 6" d="M10.125,13.5a1.125,1.125,0,0,1,1.125-1.125H22.5A1.125,1.125,0,0,1,23.625,13.5V24.75a1.125,1.125,0,0,1-2.25,0V14.625H11.25A1.125,1.125,0,0,1,10.125,13.5Z" fill-rule="evenodd"/>
    <path id="Path_7" data-name="Path 7" d="M23.3,12.7a1.125,1.125,0,0,1,0,1.593l-18,18A1.126,1.126,0,1,1,3.7,30.7l18-18a1.125,1.125,0,0,1,1.593,0Z" fill-rule="evenodd"/>
  </g>
</svg>
