<svg xmlns="http://www.w3.org/2000/svg" width="121.553" height="18.691" viewBox="0 0 121.553 18.691">
  <path id="Z_Co_B-logo" data-name="Z&amp;Co_B-logo" d="M.869,0V-1.924l7.158-9.658v-.078H1.035v-2.432H11.553v1.914L4.424-2.51v.068h7.324V0ZM17.7-1.953a2.574,2.574,0,0,0,1.689-.562,1.771,1.771,0,0,0,.684-1.431v-.791l-2.256.156a2.582,2.582,0,0,0-1.357.4,1.1,1.1,0,0,0-.469.938,1.114,1.114,0,0,0,.464.942A2.033,2.033,0,0,0,17.7-1.953ZM16.768.127a3.8,3.8,0,0,1-2.6-.9A2.947,2.947,0,0,1,13.145-3.1a2.693,2.693,0,0,1,1.084-2.275,5.771,5.771,0,0,1,3.154-.947l2.686-.166V-7.2a1.458,1.458,0,0,0-.5-1.187A2.1,2.1,0,0,0,18.184-8.8a2.137,2.137,0,0,0-1.274.366,1.466,1.466,0,0,0-.62.962H13.682a3.158,3.158,0,0,1,1.333-2.5,5.307,5.307,0,0,1,3.286-.962,5.246,5.246,0,0,1,3.32.977,3.122,3.122,0,0,1,1.25,2.588V0H20.117V-1.66h-.059A3.065,3.065,0,0,1,18.726-.352,4.119,4.119,0,0,1,16.768.127ZM24.785,0V-10.752h2.754v1.924H27.6a2.854,2.854,0,0,1,.938-1.519,2.51,2.51,0,0,1,1.621-.532,2.562,2.562,0,0,1,.8.107v2.529a2.482,2.482,0,0,0-1.025-.176,2.224,2.224,0,0,0-1.689.635,2.457,2.457,0,0,0-.605,1.768V0ZM42.246-10.752V0H39.492V-1.943h-.059A3.173,3.173,0,0,1,38.149-.386a3.9,3.9,0,0,1-2.095.542A3.815,3.815,0,0,1,33.218-.923a3.986,3.986,0,0,1-1.069-2.935v-6.895H35v6.3A2.274,2.274,0,0,0,35.566-2.8a2.094,2.094,0,0,0,1.572.581,2.137,2.137,0,0,0,1.631-.664,2.447,2.447,0,0,0,.625-1.748v-6.123Zm2.7-2.393h2.852v2.393h1.992v2.158H47.793v5.225q0,1.23,1.279,1.23a4.423,4.423,0,0,0,.713-.049V-.078a7.1,7.1,0,0,1-1.377.117,4.109,4.109,0,0,1-2.666-.684,2.82,2.82,0,0,1-.8-2.256V-8.594H43.486v-2.158h1.455ZM51.23-7.588a2.888,2.888,0,0,1,1.23-2.432,5.342,5.342,0,0,1,3.271-.918A5.153,5.153,0,0,1,58.945-10,3.04,3.04,0,0,1,60.2-7.529H57.559a1.339,1.339,0,0,0-.547-1.011,2.134,2.134,0,0,0-1.318-.376,2.176,2.176,0,0,0-1.24.317.967.967,0,0,0-.469.835q0,.791,1.436,1.123l2.021.439a4.926,4.926,0,0,1,2.319,1.045,2.484,2.484,0,0,1,.7,1.875A2.965,2.965,0,0,1,59.15-.767a5.691,5.691,0,0,1-3.428.952,5.585,5.585,0,0,1-3.374-.933,3.241,3.241,0,0,1-1.382-2.5H53.75a1.5,1.5,0,0,0,.635,1.05,2.441,2.441,0,0,0,1.416.366,2.5,2.5,0,0,0,1.338-.308.945.945,0,0,0,.488-.835.8.8,0,0,0-.308-.664,2.781,2.781,0,0,0-1.04-.42L54.3-4.512Q51.23-5.205,51.23-7.588ZM64.912-6.406l3.721-4.346h3.242L67.734-6.133,72.07,0H68.789L65.645-4.414l-.771.83V0H62.021V-14.766h2.852v8.359ZM74.307,3.926a8.557,8.557,0,0,1-1.084-.039V1.68a4.27,4.27,0,0,0,.645.029,2.344,2.344,0,0,0,1.274-.3,1.506,1.506,0,0,0,.63-.933l.1-.41L72.1-10.752h3.125l2.324,8.438h.059l2.334-8.437h3.008L79.229.215A5.771,5.771,0,0,1,77.437,3.1,5.137,5.137,0,0,1,74.307,3.926ZM94.092,0,93.008-1.172a5.561,5.561,0,0,1-1.934,1.05,7.79,7.79,0,0,1-2.432.376A5.543,5.543,0,0,1,85.068-.82,3.494,3.494,0,0,1,83.73-3.691a3.587,3.587,0,0,1,.63-2.1,5.707,5.707,0,0,1,1.978-1.646l.215-.112q.156-.083.278-.151l.142-.078A8.319,8.319,0,0,1,85.62-9.5a3.129,3.129,0,0,1-.4-1.5,2.9,2.9,0,0,1,1.138-2.344,4.372,4.372,0,0,1,2.856-.928,4.306,4.306,0,0,1,2.827.9,2.868,2.868,0,0,1,1.1,2.319,3.13,3.13,0,0,1-.693,1.973,6.894,6.894,0,0,1-2.158,1.689L92.969-4.5a5.545,5.545,0,0,0,.508-2.666V-7.91H95.85V-7a7.1,7.1,0,0,1-1.191,4.258L97.285,0Zm-6.2-6.084a3.931,3.931,0,0,0-1.147,1.011A1.989,1.989,0,0,0,86.4-3.916a1.872,1.872,0,0,0,.7,1.523,2.8,2.8,0,0,0,1.836.576A4.138,4.138,0,0,0,90.4-2.08a2.812,2.812,0,0,0,1.113-.713l-3.232-3.5Q88.164-6.23,87.891-6.084Zm1.084-2.637a4.5,4.5,0,0,0,1.377-1,1.728,1.728,0,0,0,.42-1.138,1.478,1.478,0,0,0-.43-1.1,1.516,1.516,0,0,0-1.113-.425,1.539,1.539,0,0,0-1.123.43,1.464,1.464,0,0,0-.439,1.094,1.81,1.81,0,0,0,.293.962A6.765,6.765,0,0,0,88.975-8.721ZM104.4.244A6.3,6.3,0,0,1,99.526-1.7a7.6,7.6,0,0,1-1.792-5.347,7.569,7.569,0,0,1,1.8-5.337,6.3,6.3,0,0,1,4.873-1.948,6.913,6.913,0,0,1,3.052.664,5.543,5.543,0,0,1,2.2,1.875,5.46,5.46,0,0,1,.938,2.764h-2.871a3.317,3.317,0,0,0-1.118-2.08,3.274,3.274,0,0,0-2.2-.781,3.181,3.181,0,0,0-2.666,1.309,5.681,5.681,0,0,0-1,3.525,5.771,5.771,0,0,0,.986,3.56,3.187,3.187,0,0,0,2.686,1.3,3.369,3.369,0,0,0,2.2-.723,3.207,3.207,0,0,0,1.123-1.973h2.871a5.376,5.376,0,0,1-1.924,3.745A6.48,6.48,0,0,1,104.4.244ZM117.119.186A5.123,5.123,0,0,1,113.242-1.3a5.648,5.648,0,0,1-1.426-4.082,5.618,5.618,0,0,1,1.436-4.062,5.112,5.112,0,0,1,3.867-1.494,5.118,5.118,0,0,1,3.872,1.489,5.626,5.626,0,0,1,1.431,4.067A5.656,5.656,0,0,1,121-1.294,5.129,5.129,0,0,1,117.119.186ZM115.347-2.9a2.066,2.066,0,0,0,1.772.884,2.054,2.054,0,0,0,1.768-.884,4.206,4.206,0,0,0,.635-2.485,4.19,4.19,0,0,0-.64-2.476,2.05,2.05,0,0,0-1.763-.894,2.059,2.059,0,0,0-1.772.894,4.19,4.19,0,0,0-.64,2.476A4.182,4.182,0,0,0,115.347-2.9Z" transform="translate(-0.869 14.766)"/>
</svg>
